<svg version="1.0" xmlns="http://www.w3.org/2000/svg" width="150px" height="150px" viewBox="0 0 300 293" preserveAspectRatio="xMidYMid meet">
  <g transform="translate(0,293) scale(0.1,-0.1)" fill="#222222" stroke="none">
    <path d="M1361 2487 c-39 -20 -60 -58 -71 -132 -13 -83 -6 -175 22 -265 17
    -54 31 -76 92 -138 130 -134 208 -176 286 -153 31 9 52 27 100 89 93 118 110
    160 117 284 4 70 2 116 -6 141 -19 57 -87 110 -173 135 -171 49 -317 65 -367
    39z"/>
    <path d="M636 2255 c-51 -18 -85 -44 -113 -84 -63 -93 -25 -271 97 -451 56
    -83 173 -196 218 -212 21 -7 80 -13 137 -13 108 0 154 15 202 67 78 83 79 273
    3 435 -35 76 -129 179 -198 216 -99 54 -259 73 -346 42z"/>
    <path d="M2083 2179 c-47 -14 -98 -69 -111 -120 -28 -107 -22 -374 10 -433 25
    -47 92 -127 123 -146 54 -33 105 -27 230 31 60 28 117 54 125 58 26 13 89 104
    105 150 20 59 19 127 -4 176 -25 57 -217 237 -286 269 -57 28 -129 33 -192 15z"/>
    <path d="M1445 1540 c-74 -24 -138 -76 -169 -139 -37 -72 -86 -239 -96 -327
    -11 -102 -18 -118 -97 -238 -108 -163 -139 -285 -90 -357 29 -44 76 -57 197
    -58 176 -1 281 39 373 144 56 63 146 119 232 145 22 7 119 15 215 19 164 7
    180 10 255 40 148 58 235 147 235 240 0 51 -80 259 -111 287 -12 10 -54 21
    -119 29 -55 8 -130 23 -165 35 -76 25 -228 102 -310 156 l-58 39 -116 2 c-93
    2 -128 -1 -176 -17z"/>
    <path d="M505 1332 c-58 -27 -95 -75 -95 -120 0 -43 50 -207 77 -252 10 -17
    34 -41 53 -53 32 -20 48 -22 185 -22 164 1 223 12 261 50 31 31 31 75 0 140
    -50 105 -129 173 -278 236 -92 39 -151 45 -203 21z"/>
  </g>
</svg>
