<svg width="40" height="40" viewBox="0 0 40 40" fill="none" xmlns="http://www.w3.org/2000/svg">
  <style>
    path {
      fill: #444444;
    }
    @media (prefers-color-scheme: dark) {
      path {
        fill: #e3e3e3;
      }
    }
  </style>
  <path d="M12.8753 7.54604C10.8983 9.34972 10.6688 9.78681 10.8756 11.4068C10.9993 12.366 11.2906 13.2193 11.7506 13.9424C12.0507 14.417 12.0826 14.449 12.3618 14.6298C12.8938 14.9675 13.5434 15.0433 15.0605 14.9491C15.492 14.9217 16.0539 14.8962 16.3159 14.8932C17.4177 14.8864 18.1716 14.6796 18.9349 14.1647C19.5044 13.7849 19.8125 13.4611 20.0991 12.9385C20.3131 12.5472 20.5274 11.8599 20.5775 11.3885C20.6546 10.6801 20.772 9.09255 20.7693 8.75702C20.7696 7.50208 20.434 6.86767 19.4281 6.21263C18.9345 5.89077 18.4919 5.70056 17.8482 5.53797C17.2044 5.37538 16.763 5.32644 16.325 5.36994C15.7607 5.42662 15.5351 5.5297 14.6305 6.13889C13.8947 6.63545 13.7168 6.77774 12.8753 7.54604Z"/>
  <path d="M7.2215 20.1527C6.4392 20.917 6.00317 21.6872 5.83446 22.6283C5.55097 24.1846 6.04408 25.8917 7.36141 27.9371C8.43341 29.6015 9.78709 31.1018 11.4835 32.4978C14.2641 34.7926 16.6403 35.6051 18.5923 34.9308C19.1108 34.7507 19.9528 34.2011 20.3627 33.7739C21.6575 32.4192 22.6001 30.1689 23.1016 27.2599C23.4409 25.2759 23.4102 23.6154 23.014 22.1633C22.623 20.7194 21.9524 19.6869 20.566 18.3624C19.0349 16.9093 17.9926 16.616 15.7341 16.9975C14.9992 17.1206 13.2751 17.495 12.3804 17.7187C11.4674 17.9488 10.3922 18.3106 9.63269 18.6395C8.92956 18.9427 7.63166 19.7608 7.2215 20.1527Z"/>
  <path d="M23.6557 9.82117C23.1306 10.3311 22.9743 11.0212 23.0546 12.471C23.1158 13.6732 23.1083 13.8794 22.9397 15.0039C22.7097 16.4949 22.7363 17.0157 23.0643 17.525C23.4936 18.1916 24.1658 18.2938 25.8059 17.9459C27.053 17.6765 27.3321 17.6739 28.5569 17.9106C29.9533 18.1869 30.5372 18.1171 31.0348 17.6255C31.9555 16.7275 32.6323 15.128 32.6944 13.7075C32.7198 13.1105 32.5669 11.9578 32.3818 11.3828C31.9655 10.0564 31.3135 9.36665 29.9399 8.80302C28.3271 8.13841 26.9948 8.12721 25.411 8.76308C24.8862 8.97693 23.922 9.55476 23.6557 9.82117Z"/>
  <path d="M26.7119 21.6978C26.0761 22.3408 25.6339 23.3281 25.533 24.3483C25.5089 24.6248 25.4651 25.0624 25.4396 25.328C25.4142 25.5935 25.3615 26.0784 25.3195 26.4142C25.1233 28.0188 25.3183 28.6878 26.1607 29.3157C27.0905 30.0096 29.0052 30.5676 29.9769 30.4286C30.683 30.3306 31.179 29.9762 32.737 28.446C34.2741 26.9357 34.7389 26.3061 34.9608 25.4302C35.1623 24.627 34.9313 23.2659 34.4255 22.2538C33.8888 21.1852 33.1621 20.6933 31.9951 20.6074C31.4866 20.5676 29.3899 20.6163 28.8863 20.6799C28.2458 20.7578 27.7431 20.945 27.2509 21.2792C27.0375 21.4274 26.7929 21.6142 26.7119 21.6978Z"/>
</svg>
