<svg width="192" height="192" viewBox="0 0 123 122" fill="none" xmlns="http://www.w3.org/2000/svg">
  <style>
    path { fill: #444444; }
    @media (prefers-color-scheme: dark) {
      path { fill: #fafafa; }
    }
  </style>
  <path d="M30.5755 9.7096C22.3057 17.0892 21.3393 18.8701 22.151 25.4399C22.6368 29.3299 23.8225 32.7852 25.7135 35.7067C26.9467 37.6246 27.0781 37.7536 28.2334 38.4791C30.4344 39.8345 33.1321 40.1232 39.44 39.6961C41.2345 39.5723 43.5706 39.4523 44.6594 39.4323C49.2388 39.3727 52.3784 38.511 55.5658 36.3985C57.9441 34.8401 59.2338 33.5168 60.4406 31.387C61.3415 29.7924 62.2521 26.9959 62.4742 25.0809C62.8157 22.203 63.3501 15.7555 63.3485 14.3936C63.3865 9.2995 62.0103 6.7341 57.8492 4.1047C55.8069 2.8127 53.9731 2.0535 51.3024 1.4124C48.6317 0.771298 46.7986 0.5856 44.9768 0.7751C42.6299 1.0217 41.6893 1.4467 37.9115 3.9461C34.8389 5.9834 34.0954 6.5662 30.5755 9.7096Z"/>
  <path d="M6.7074 61.0489C3.4336 64.1744 1.5987 67.3135 0.869902 71.1386C-0.353998 77.4641 1.6454 84.379 7.0604 92.643C11.4669 99.368 17.049 105.418 24.0587 111.035C35.5479 120.269 45.4 123.497 53.5327 120.703C55.693 119.957 59.2085 117.701 60.9245 115.955C66.3458 110.418 70.3295 101.256 72.4992 89.433C73.9674 81.369 73.8886 74.6298 72.2844 68.7467C70.702 62.8972 67.9452 58.7258 62.2217 53.3899C55.9012 47.5366 51.5775 46.3766 42.1796 47.9915C39.1217 48.5127 31.9451 50.0829 28.2202 51.0173C24.4187 51.9779 19.9394 53.4783 16.773 54.8358C13.8418 56.087 8.4235 59.4461 6.7074 61.0489Z"/>
  <path d="M75.3136 18.6285C73.1165 20.7138 72.4467 23.5199 72.7378 29.4026C72.9567 34.2805 72.9194 35.118 72.1859 39.6874C71.186 45.7465 71.2814 47.8599 72.6297 49.9175C74.3945 52.6108 77.185 53.0058 84.012 51.5455C89.203 50.4156 90.363 50.3968 95.447 51.3217C101.242 52.4022 103.671 52.1018 105.753 50.0917C109.606 46.4192 112.466 39.9066 112.766 34.1388C112.889 31.7149 112.287 27.0399 111.535 24.7113C109.844 19.3396 107.154 16.5588 101.462 14.3112C94.778 11.6607 89.241 11.6544 82.64 14.282C80.453 15.1654 76.4285 17.5393 75.3136 18.6285Z"/>
  <path d="M87.667 66.7488C85.006 69.3775 83.139 73.3983 82.69 77.5425C82.582 78.6655 82.387 80.443 82.273 81.522C82.159 82.601 81.926 84.571 81.742 85.935C80.879 92.454 81.67 95.164 85.153 97.688C88.997 100.477 96.938 102.686 100.981 102.093C103.918 101.675 105.99 100.222 112.511 93.965C118.943 87.789 120.894 85.22 121.842 81.657C122.703 78.3913 121.783 72.8728 119.71 68.7793C117.511 64.4575 114.505 62.4819 109.657 62.1675C107.545 62.0211 98.829 62.2803 96.734 62.5533C94.07 62.8882 91.975 63.663 89.92 65.0339C89.029 65.6417 88.006 66.4072 87.667 66.7488Z"/>
</svg>

